<svg id="Layer_1" data-name="Layer 1" xmlns="http://www.w3.org/2000/svg" viewBox="0 0 122.88 105.01" fill="#808080"><path class="cls-1" d="M4,43.36H32.37a4,4,0,0,1,4,4V101a4,4,0,0,1-4,4H4a4,4,0,0,1-4-4V47.39a4,4,0,0,1,4-4ZM62.16,6.3A7.36,7.36,0,0,1,66.23.65,8.14,8.14,0,0,1,71.79.34a15.36,15.36,0,0,1,5.3,2.71A26.21,26.21,0,0,1,86.81,21.9a57.41,57.41,0,0,1-.12,8.35q-.25,2.94-.76,6.15h20.2a21.58,21.58,0,0,1,9.1,2.33,14.7,14.7,0,0,1,5.6,4.92,12.55,12.55,0,0,1,2,7.51,18.1,18.1,0,0,1-1.82,6.93,21.82,21.82,0,0,1,.54,8.38,9.7,9.7,0,0,1-2.78,5.68,25.22,25.22,0,0,1-1.4,9.43,19.81,19.81,0,0,1-4.5,7,28.37,28.37,0,0,1-.9,5A17.3,17.3,0,0,1,109.5,99h0c-3.43,4.84-6.17,4.73-10.51,4.55-.61,0-1.26,0-2.26,0H57.39a19.08,19.08,0,0,1-8.86-1.78,21.13,21.13,0,0,1-7-6.06L41,94V48.15l2-.53c5.08-1.37,9.07-5.71,12.16-10.9a75.8,75.8,0,0,0,7-16.64V6.82l.06-.52Zm6.32-.78a2.15,2.15,0,0,0-1,1.57V20.46l-.12.77a82.31,82.31,0,0,1-7.61,18.24C56.4,45.09,52,49.91,46.37,52.14V93.07A14.6,14.6,0,0,0,50.93,97a14.14,14.14,0,0,0,6.46,1.21H96.73c.7,0,1.61,0,2.47.08,2.57.1,4.2.17,5.94-2.29h0a12.34,12.34,0,0,0,1.71-3.74,24.86,24.86,0,0,0,.79-5l.83-1.77a14.89,14.89,0,0,0,3.9-5.75,21.18,21.18,0,0,0,1-8.67l-.1-1.6,1.36-.84a4.09,4.09,0,0,0,1.64-3,17.44,17.44,0,0,0-.68-7.12l.21-1.94A13.12,13.12,0,0,0,117.51,51a7.29,7.29,0,0,0-1.17-4.38,9.53,9.53,0,0,0-3.59-3.12A16,16,0,0,0,106,41.77H79.51l.6-3.18a85.93,85.93,0,0,0,1.22-8.79,51,51,0,0,0,.13-7.55,20.76,20.76,0,0,0-7.62-15,10.15,10.15,0,0,0-3.41-1.79,3,3,0,0,0-2,0ZM22.64,85.3a5.13,5.13,0,1,1-5.13,5.13,5.13,5.13,0,0,1,5.13-5.13Z"/></svg>